<?xml version="1.0" encoding="us-ascii" standalone="no"?><svg xmlns="http://www.w3.org/2000/svg" xmlns:xlink="http://www.w3.org/1999/xlink" contentStyleType="text/css" height="93px" preserveAspectRatio="none" style="width:613px;height:93px;background:#FFFFFF;" version="1.1" viewBox="0 0 613 93" width="613px" zoomAndPan="magnify"><defs/><g><!--entity left--><g id="elem_left"><rect fill="#F1F1F1" height="44" rx="2.5" ry="2.5" style="stroke:#181818;stroke-width:0.5;" width="80" x="128" y="44"/><text fill="#000000" font-family="Nimbus Mono PS" font-size="20" lengthAdjust="spacing" textLength="60" x="138" y="70.06">state</text></g><g id="elem_GMN3"><path d="M6,52 L6,80.0001 A0,0 0 0 0 6,80.0001 L108,80.0001 A0,0 0 0 0 108,80.0001 L108,70 L127.72,66 L108,62 L108,62 L98,52 L6,52 A0,0 0 0 0 6,52 " fill="#FEFFDD" style="stroke:#181818;stroke-width:0.5;"/><path d="M98,52 L98,62 L108,62 L98,52 " fill="#FEFFDD" style="stroke:#181818;stroke-width:0.5;"/><text fill="#000000" font-family="Nimbus Mono PS" font-size="15" lengthAdjust="spacing" textLength="81" x="12" y="69.0451">structure</text></g><!--entity right--><g id="elem_right"><rect fill="#F1F1F1" height="44" rx="2.5" ry="2.5" style="stroke:#181818;stroke-width:0.5;" width="116" x="368" y="44"/><text fill="#000000" font-family="Nimbus Mono PS" font-size="20" lengthAdjust="spacing" textLength="96" x="378" y="70.06">behavior</text></g><g id="elem_GMN7"><path d="M504,52 L504,62 L484.18,66 L504,70 L504,80.0001 A0,0 0 0 0 504,80.0001 L606,80.0001 A0,0 0 0 0 606,80.0001 L606,62 L596,52 L504,52 A0,0 0 0 0 504,52 " fill="#FEFFDD" style="stroke:#181818;stroke-width:0.5;"/><path d="M596,52 L596,62 L606,62 L596,52 " fill="#FEFFDD" style="stroke:#181818;stroke-width:0.5;"/><text fill="#000000" font-family="Nimbus Mono PS" font-size="15" lengthAdjust="spacing" textLength="81" x="510" y="69.0451">algorithm</text></g><g id="elem_relation"><polygon fill="#F1F1F1" points="288,54,300,66,288,78,276,66,288,54" style="stroke:#181818;stroke-width:0.5;"/></g><g id="elem_GMN11"><path d="M228,6 L228,34.0001 A0,0 0 0 0 228,34.0001 L284,34.0001 L288,53.78 L292,34.0001 L348,34.0001 A0,0 0 0 0 348,34.0001 L348,16 L338,6 L228,6 A0,0 0 0 0 228,6 " fill="#FEFFDD" style="stroke:#181818;stroke-width:0.5;"/><path d="M338,6 L338,16 L348,16 L338,6 " fill="#FEFFDD" style="stroke:#181818;stroke-width:0.5;"/><text fill="#000000" font-family="Nimbus Mono PS" font-size="15" lengthAdjust="spacing" textLength="99" x="234" y="23.0451">consequence</text></g><!--link left to relation--><g id="link_left_relation"><path codeLine="15" d="M208.29,66 C232.03,66 260.57,66 275.92,66 " fill="none" id="left-relation" style="stroke:#181818;stroke-width:1.0;"/></g><!--link relation to right--><g id="link_relation_right"><path codeLine="16" d="M300.13,66 C315.04,66 342.57,66 367.99,66 " fill="none" id="relation-right" style="stroke:#181818;stroke-width:1.0;"/></g><!--SRC=[VOzDJiD038NtSuf9XGHPbByLOiS540ikO2PcQjLZ1uy7okr9Gn69X5ZvwJs_JtP7ahWD69bUhZ8Kl1nRuIwfOUYM6TtSoNU64kgUP0I34WraNt6CjzSBKtJ0amdC-b7eG993C4mEaXdZviodPcLmlFXyE51zqafEx_YCLlfDX1ePNps8EixgFYuQrQqbRuRzVyX7pB166kNTYJdB5HGugv7lIXy6Wg8oHCCf8PLm7kUIwxYge3WGbsdquS-5f5BnhQ6awTHm_2Dkjx_O7p6RnuE-0000]--></g></svg>