<?xml version="1.0" encoding="us-ascii" standalone="no"?><svg xmlns="http://www.w3.org/2000/svg" xmlns:xlink="http://www.w3.org/1999/xlink" contentStyleType="text/css" height="93px" preserveAspectRatio="none" style="width:694px;height:93px;background:#FFFFFF;" version="1.1" viewBox="0 0 694 93" width="694px" zoomAndPan="magnify"><defs/><g><!--entity left--><g id="elem_left"><rect fill="#F1F1F1" height="44" rx="2.5" ry="2.5" style="stroke:#181818;stroke-width:0.5;" width="116" x="146" y="44"/><text fill="#000000" font-family="Nimbus Mono PS" font-size="20" lengthAdjust="spacing" textLength="96" x="156" y="70.06">abstract</text></g><g id="elem_GMN3"><path d="M6,52 L6,80.0001 A0,0 0 0 0 6,80.0001 L126,80.0001 A0,0 0 0 0 126,80.0001 L126,70 L145.67,66 L126,62 L126,62 L116,52 L6,52 A0,0 0 0 0 6,52 " fill="#FEFFDD" style="stroke:#181818;stroke-width:0.5;"/><path d="M116,52 L116,62 L126,62 L116,52 " fill="#FEFFDD" style="stroke:#181818;stroke-width:0.5;"/><text fill="#000000" font-family="Nimbus Mono PS" font-size="15" lengthAdjust="spacing" textLength="99" x="12" y="69.0451">declaration</text></g><!--entity right--><g id="elem_right"><rect fill="#F1F1F1" height="44" rx="2.5" ry="2.5" style="stroke:#181818;stroke-width:0.5;" width="116" x="422" y="44"/><text fill="#000000" font-family="Nimbus Mono PS" font-size="20" lengthAdjust="spacing" textLength="96" x="432" y="70.06">concrete</text></g><g id="elem_GMN7"><path d="M558,52 L558,62 L538.15,66 L558,70 L558,80.0001 A0,0 0 0 0 558,80.0001 L687,80.0001 A0,0 0 0 0 687,80.0001 L687,62 L677,52 L558,52 A0,0 0 0 0 558,52 " fill="#FEFFDD" style="stroke:#181818;stroke-width:0.5;"/><path d="M677,52 L677,62 L687,62 L677,52 " fill="#FEFFDD" style="stroke:#181818;stroke-width:0.5;"/><text fill="#000000" font-family="Nimbus Mono PS" font-size="15" lengthAdjust="spacing" textLength="108" x="564" y="69.0451">detalization</text></g><g id="elem_relation"><polygon fill="#F1F1F1" points="342,54,354,66,342,78,330,66,342,54" style="stroke:#181818;stroke-width:0.5;"/></g><g id="elem_GMN11"><path d="M282,6 L282,34.0001 A0,0 0 0 0 282,34.0001 L338,34.0001 L342,53.78 L346,34.0001 L402,34.0001 A0,0 0 0 0 402,34.0001 L402,16 L392,6 L282,6 A0,0 0 0 0 282,6 " fill="#FEFFDD" style="stroke:#181818;stroke-width:0.5;"/><path d="M392,6 L392,16 L402,16 L392,6 " fill="#FEFFDD" style="stroke:#181818;stroke-width:0.5;"/><text fill="#000000" font-family="Nimbus Mono PS" font-size="15" lengthAdjust="spacing" textLength="99" x="288" y="23.0451">realization</text></g><!--link left to relation--><g id="link_left_relation"><path codeLine="14" d="M262.28,66 C287.69,66 315.15,66 329.98,66 " fill="none" id="left-relation" style="stroke:#181818;stroke-width:1.0;"/></g><!--link relation to right--><g id="link_relation_right"><path codeLine="15" d="M354.13,66 C369.04,66 396.57,66 421.99,66 " fill="none" id="relation-right" style="stroke:#181818;stroke-width:1.0;"/></g><!--SRC=[VOuzJWD138NxEOKteY15ma-5wBW0eiW5pCvZiEBnh6OSM75waiqYDXHqJy_wlkTEhDT31AcytYJEs0w7h5rVAaAtlCdTWvrliD3sOWDNpbJPzWq3tTykIYiHSycgvJFBA9P2gEYTBIbeTUL7iYaxhiUdKTep4hjyO8UQrolYHeet3rOSKtga1H7Hwt78fTZwF-bBQN8fhPBUP-iK_sYTLRvcRnJEnI9LwDISAI_31LEnGCBfKzfiVfcVC9MdmMy0]--></g></svg>