<?xml version="1.0" encoding="us-ascii" standalone="no"?><svg xmlns="http://www.w3.org/2000/svg" xmlns:xlink="http://www.w3.org/1999/xlink" contentStyleType="text/css" height="93px" preserveAspectRatio="none" style="width:649px;height:93px;background:#FFFFFF;" version="1.1" viewBox="0 0 649 93" width="649px" zoomAndPan="magnify"><defs/><g><g id="elem_relation"><polygon fill="#F1F1F1" points="324,54,336,66,324,78,312,66,324,54" style="stroke:#181818;stroke-width:0.5;"/></g><g id="elem_GMN3"><path d="M255,6 L255,34.0001 A0,0 0 0 0 255,34.0001 L320,34.0001 L324,53.78 L328,34.0001 L393,34.0001 A0,0 0 0 0 393,34.0001 L393,16 L383,6 L255,6 A0,0 0 0 0 255,6 " fill="#FEFFDD" style="stroke:#181818;stroke-width:0.5;"/><path d="M383,6 L383,16 L393,16 L383,6 " fill="#FEFFDD" style="stroke:#181818;stroke-width:0.5;"/><text fill="#000000" font-family="Nimbus Mono PS" font-size="15" lengthAdjust="spacing" textLength="117" x="261" y="23.0451">specification</text></g><!--entity left--><g id="elem_left"><rect fill="#F1F1F1" height="44" rx="2.5" ry="2.5" style="stroke:#181818;stroke-width:0.5;" width="116" x="119" y="44"/><text fill="#000000" font-family="Nimbus Mono PS" font-size="20" lengthAdjust="spacing" textLength="96" x="129" y="70.06">abstract</text></g><g id="elem_GMN7"><path d="M6,52 L6,80.0001 A0,0 0 0 0 6,80.0001 L99,80.0001 A0,0 0 0 0 99,80.0001 L99,70 L118.72,66 L99,62 L99,62 L89,52 L6,52 A0,0 0 0 0 6,52 " fill="#FEFFDD" style="stroke:#181818;stroke-width:0.5;"/><path d="M89,52 L89,62 L99,62 L89,52 " fill="#FEFFDD" style="stroke:#181818;stroke-width:0.5;"/><text fill="#000000" font-family="Nimbus Mono PS" font-size="15" lengthAdjust="spacing" textLength="72" x="12" y="69.0451">abstract</text></g><!--entity right--><g id="elem_right"><rect fill="#F1F1F1" height="44" rx="2.5" ry="2.5" style="stroke:#181818;stroke-width:0.5;" width="116" x="413" y="44"/><text fill="#000000" font-family="Nimbus Mono PS" font-size="20" lengthAdjust="spacing" textLength="96" x="423" y="70.06">concrete</text></g><g id="elem_GMN11"><path d="M549,52 L549,62 L529.3,66 L549,70 L549,80.0001 A0,0 0 0 0 549,80.0001 L642,80.0001 A0,0 0 0 0 642,80.0001 L642,62 L632,52 L549,52 A0,0 0 0 0 549,52 " fill="#FEFFDD" style="stroke:#181818;stroke-width:0.5;"/><path d="M632,52 L632,62 L642,62 L632,52 " fill="#FEFFDD" style="stroke:#181818;stroke-width:0.5;"/><text fill="#000000" font-family="Nimbus Mono PS" font-size="15" lengthAdjust="spacing" textLength="72" x="555" y="69.0451">concrete</text></g><!--link left to relation--><g id="link_left_relation"><path codeLine="17" d="M235.31,66 C263.81,66 295.58,66 311.94,66 " fill="none" id="left-relation" style="stroke:#181818;stroke-width:1.0;"/></g><!--link relation to right--><g id="link_relation_right"><path codeLine="18" d="M336.38,66 C352.87,66 384.55,66 412.92,66 " fill="none" id="relation-right" style="stroke:#181818;stroke-width:1.0;"/></g><!--SRC=[VP1DJWCn38NtEOMdgWIpA7yhr1qNG2ouW9kugLN7YP8KHfoUpBJ052fszlFB- -nqh5OEZa1uS-inq4qw1Ebip6Iw-Opl7_Ku8pLbpvemOu2CkY-KuE5k9cfqT19H9Bu77bYzCOunH7MGIR1oLAEn4jIOrh2iBQaqcQvB8ijRjfEbDoQJhQXU21Opr_0qS7actrnlz4evz0l00aBRQgvW2XxhisH7Ljg2nzpB5joKrjZQ_uTzYONFiPdzxfixDR_05OK_vkI_9XlLPghKJXxNWjNgvwE-YaaSNtu2]--></g></svg>