<?xml version="1.0" encoding="us-ascii" standalone="no"?><svg xmlns="http://www.w3.org/2000/svg" xmlns:xlink="http://www.w3.org/1999/xlink" contentStyleType="text/css" height="93px" preserveAspectRatio="none" style="width:721px;height:93px;background:#FFFFFF;" version="1.1" viewBox="0 0 721 93" width="721px" zoomAndPan="magnify"><defs/><g><g id="elem_relation"><polygon fill="#F1F1F1" points="348,54,360,66,348,78,336,66,348,54" style="stroke:#181818;stroke-width:0.5;"/></g><g id="elem_GMN3"><path d="M288,6 L288,34.0001 A0,0 0 0 0 288,34.0001 L344,34.0001 L348,53.78 L352,34.0001 L408,34.0001 A0,0 0 0 0 408,34.0001 L408,16 L398,6 L288,6 A0,0 0 0 0 288,6 " fill="#FEFFDD" style="stroke:#181818;stroke-width:0.5;"/><path d="M398,6 L398,16 L408,16 L398,6 " fill="#FEFFDD" style="stroke:#181818;stroke-width:0.5;"/><text fill="#000000" font-family="Nimbus Mono PS" font-size="15" lengthAdjust="spacing" textLength="99" x="294" y="23.0451">consequence</text></g><!--entity left--><g id="elem_left"><rect fill="#F1F1F1" height="44" rx="2.5" ry="2.5" style="stroke:#181818;stroke-width:0.5;" width="140" x="128" y="44"/><text fill="#000000" font-family="Nimbus Mono PS" font-size="20" lengthAdjust="spacing" textLength="120" x="138" y="70.06">projective</text></g><g id="elem_GMN7"><path d="M6,52 L6,80.0001 A0,0 0 0 0 6,80.0001 L108,80.0001 A0,0 0 0 0 108,80.0001 L108,70 L127.78,66 L108,62 L108,62 L98,52 L6,52 A0,0 0 0 0 6,52 " fill="#FEFFDD" style="stroke:#181818;stroke-width:0.5;"/><path d="M98,52 L98,62 L108,62 L98,52 " fill="#FEFFDD" style="stroke:#181818;stroke-width:0.5;"/><text fill="#000000" font-family="Nimbus Mono PS" font-size="15" lengthAdjust="spacing" textLength="81" x="12" y="69.0451">structure</text></g><!--entity right--><g id="elem_right"><rect fill="#F1F1F1" height="44" rx="2.5" ry="2.5" style="stroke:#181818;stroke-width:0.5;" width="164" x="428" y="44"/><text fill="#000000" font-family="Nimbus Mono PS" font-size="20" lengthAdjust="spacing" textLength="144" x="438" y="70.06">interpretive</text></g><g id="elem_GMN11"><path d="M612,52 L612,62 L592.25,66 L612,70 L612,80.0001 A0,0 0 0 0 612,80.0001 L714,80.0001 A0,0 0 0 0 714,80.0001 L714,62 L704,52 L612,52 A0,0 0 0 0 612,52 " fill="#FEFFDD" style="stroke:#181818;stroke-width:0.5;"/><path d="M704,52 L704,62 L714,62 L704,52 " fill="#FEFFDD" style="stroke:#181818;stroke-width:0.5;"/><text fill="#000000" font-family="Nimbus Mono PS" font-size="15" lengthAdjust="spacing" textLength="81" x="618" y="69.0451">algorithm</text></g><!--link left to relation--><g id="link_left_relation"><path codeLine="15" d="M268.23,66 C294.41,66 321.39,66 335.99,66 " fill="none" id="left-relation" style="stroke:#181818;stroke-width:1.0;"/></g><!--link relation to right--><g id="link_relation_right"><path codeLine="16" d="M360.25,66 C374.69,66 401.06,66 427.64,66 " fill="none" id="relation-right" style="stroke:#181818;stroke-width:1.0;"/></g><!--SRC=[VOyzKWCn34PxdqAReI15ma_5qEK230KN45xXQ69BYoo7S7jsap3iDdJVF4bFKiSIS-i9Ch_V9Ioq7Lh9NLIZqCrh_F0abnf9g0UM0GqB6CgXqW2FzpCesjCLOixwLVZ4aaBe6OjA3qOPdLM2g1Eu3izmuwEfZfXkeqgbpqOIQHs2KNIKb0bMivxltOdhgrPsFj8RMLcl02ja-l2BT4eBQtLhqPkDpd-KBvHmgJHE-wlp71TIp4cDVL_6GwUDiDdyFVSRpd0Q_G40]--></g></svg>